<mxfile host="app.diagrams.net" modified="2024-06-14T13:57:11.968Z" agent="Mozilla/5.0 (Windows NT 10.0; Win64; x64) AppleWebKit/537.36 (KHTML, like Gecko) Chrome/125.0.0.0 Safari/537.36" version="24.5.3" etag="5BUzuFhZ43inVn86ZjWt" type="github">
  <diagram name="Page-1" id="Cq6x1MR7Hn67_txfsBP6">
    <mxGraphModel>
      <root>
        <mxCell id="0" />
        <mxCell id="1" parent="0" />
      </root>
    </mxGraphModel>
  </diagram>
</mxfile>
